<?xml version="1.0" standalone="no"?><!DOCTYPE svg PUBLIC "-//W3C//DTD SVG 1.1//EN" "http://www.w3.org/Graphics/SVG/1.1/DTD/svg11.dtd"><svg t="1538582509062" class="icon" style="" viewBox="0 0 1024 1024" version="1.1" xmlns="http://www.w3.org/2000/svg" p-id="1920" xmlns:xlink="http://www.w3.org/1999/xlink" width="200" height="200"><defs><style type="text/css"></style></defs><path d="M464.00793945 824.25587891C253.84950987 824.25587891 82.88 653.28636904 82.88 443.12793945 82.88 232.96950987 253.84950987 62 464.00793945 62c210.15842959 0 381.12793945 170.96950987 381.12793946 381.12793945 0 210.15842959-170.96950987 381.12793945-381.12793946 381.12793946z m0-680.42546807A299.61139922 299.61139922 0 0 0 164.71041084 443.12793945a299.61139922 299.61139922 0 0 0 299.29752861 299.29752862 299.61139922 299.61139922 0 0 0 299.29752862-299.29752862A299.61139922 299.61139922 0 0 0 464.00793945 143.83041084z" p-id="1921"></path><path d="M620.96387187 708.33378271l63.41132989-63.41132899 253.64531777 253.64531776-63.41132901 63.41132989-253.64531864-253.64531866Z" p-id="1922"></path></svg>